PathFileType	4	(X/Y/Z)	E:\Qualisys_Data\Carbon_Farble_Plate\Data\Amateur_Runner\S14\T3\S14T3V13_c3d.trc
DataRate	CameraRate	NumFrames	NumMarkers	Units	OrigDataRate	OrigDataStartFrame	OrigNumFrames
200.000000	200.000000	5	39	mm	200.000000	252	336
Frame#	Time	LSHO			RSHO			LICST			RICST			LASIS			LHEEL			RASIS			LTROC			RTROC			SACR			LTH1			LSK4			LTH2			LTH3			RHM5			LSK2			LTH4			RTH1			LTOE			RTH2			RTH3			RTH4			LLEP			RLEP			LSK1			LSK3			RSK1			LHM5			RSK2			LFT1			RSK3			RSK4			LLME			RLME			RTOE			RHEEL			RFT1			RFT2			LFT2			
		X1	Y1	Z1	X2	Y2	Z2	X3	Y3	Z3	X4	Y4	Z4	X5	Y5	Z5	X6	Y6	Z6	X7	Y7	Z7	X8	Y8	Z8	X9	Y9	Z9	X10	Y10	Z10	X11	Y11	Z11	X12	Y12	Z12	X13	Y13	Z13	X14	Y14	Z14	X15	Y15	Z15	X16	Y16	Z16	X17	Y17	Z17	X18	Y18	Z18	X19	Y19	Z19	X20	Y20	Z20	X21	Y21	Z21	X22	Y22	Z22	X23	Y23	Z23	X24	Y24	Z24	X25	Y25	Z25	X26	Y26	Z26	X27	Y27	Z27	X28	Y28	Z28	X29	Y29	Z29	X30	Y30	Z30	X31	Y31	Z31	X32	Y32	Z32	X33	Y33	Z33	X34	Y34	Z34	X35	Y35	Z35	X36	Y36	Z36	X37	Y37	Z37	X38	Y38	Z38	X39	Y39	Z39	

253	1.26	1098.8056640625	1431.931396484375	-494.0297241210938	1222.803100585938	1441.218627929688	-225.2843170166016	1116.171997070312	985.5399169921876	-457.1193542480469	1169.793090820312	995.7655029296876	-190.3289031982422	1161.063598632812	935.5149536132812	-436.6662902832031	1259.074340820312	68.07508850097656	-330.1095581054688	1187.302001953125	949.00830078125	-208.2893524169922	1037.213989257812	862.1611328125	-473.3373107910156	1034.459838867188	889.5027465820312	-133.4297790527344	1000.275634765625	991.2540283203124	-314.62060546875	1178.986328125	654.8272094726562	-484.5300903320312	1213.789306640625	287.306884765625	-411.3250427246094	1117.856323242188	629.8125	-441.9775390625	1234.160888671875	576.7646484375	-452.2017211914062	606.2361450195312	169.1761932373047	-157.5467987060547	1197.30615234375	383.0806579589844	-429.0017395019531	1165.1220703125	546.4505004882812	-424.2405700683594	1085.5546875	643.0202026367188	-160.7919158935547	1502.14892578125	154.5628662109375	-392.5188598632812	1013.739196777344	670.3690795898438	-145.2531280517578	1050.072143554688	551.0109252929688	-184.5631713867188	973.17236328125	579.4769287109375	-165.2959442138672	1223.158081054688	487.6747436523438	-439.9798889160156	964.18798828125	507.6515502929688	-173.2970581054688	1277.181518554688	397.3193359375	-438.2632751464844	1293.643432617188	298.0189514160156	-424.2452697753906	877.167236328125	417.9038391113281	-168.3652496337891	1437.535400390625	105.21240234375	-440.7082824707031	827.7349853515625	488.9142150878906	-170.0322723388672	1285.467651367188	49.85636901855469	-304.0912475585938	789.2507934570312	363.7116088867188	-179.9887237548828	749.8583374023438	432.318359375	-182.2847900390625	1297.809326171875	113.5826797485352	-395.2576599121094	621.6272583007812	313.9985961914062	-195.9100341796875	645.2401733398438	101.6445846557617	-217.12646484375	579.743408203125	348.5672302246094	-256.8328857421875	558.0348510742188	326.0946350097656	-284.2609252929688	555.6627807617188	345.4905395507812	-234.6687316894531	1272.21435546875	39.31716537475586	-356.2909240722656
254	1.265	1114.83642578125	1427.817626953125	-494.919189453125	1238.1328125	1437.980102539062	-226.1109466552734	1132.15771484375	981.8048706054688	-457.4555358886719	1184.827392578125	992.639892578125	-190.2950134277344	1176.263793945312	932.2037963867188	-437.5820922851562	1269.212524414062	67.286376953125	-328.1429138183594	1202.421630859375	945.982666015625	-208.4350128173828	1052.27685546875	858.6516723632812	-473.0575256347656	1050.60107421875	885.201904296875	-133.2552490234375	1015.376159667969	987.2946166992188	-315.0351257324219	1194.36083984375	652.0498657226562	-482.4973754882812	1227.448364257812	284.4396057128906	-410.4971618652344	1133.468383789062	626.832763671875	-441.8195495605469	1250.0224609375	573.8276977539062	-451.0348815917969	619.041259765625	173.2997283935547	-157.8545532226562	1211.277587890625	380.171875	-428.9780883789062	1180.793090820312	543.1050415039062	-424.2052917480469	1104.268676757812	638.9228515625	-160.9296722412109	1514.4736328125	147.8943634033203	-390.1582946777344	1032.3857421875	665.4114379882812	-144.9368896484375	1069.935180664062	546.3744506835938	-184.5190124511719	992.7363891601562	574.0994262695312	-165.1492004394531	1239.302490234375	484.7747802734375	-439.7254028320312	984.8997192382812	502.2624206542969	-172.5605316162109	1291.1064453125	393.9020385742188	-438.6410827636719	1307.14697265625	294.0870361328125	-423.0247497558594	896.3704833984375	413.6934509277344	-168.3691711425781	1448.97900390625	99.17421722412108	-437.7026672363281	848.6515502929688	486.2896118164062	-169.6452178955078	1293.9697265625	47.63186264038086	-302.7423095703125	806.5507202148438	362.3606262207031	-180.3160552978516	769.3304443359375	432.0877990722656	-182.0415802001953	1308.781372070312	110.1581573486328	-393.6000061035156	638.6185913085938	317.9466857910156	-196.0243377685547	656.7822265625	104.8277282714844	-217.1508331298828	597.3399658203125	353.4316101074219	-257.2718505859375	575.07421875	331.234619140625	-285.0482788085938	573.4110107421875	350.876220703125	-235.3822631835938	1282.056884765625	37.89412307739258	-354.8141479492188
255	1.27	1130.63916015625	1423.427001953125	-496.0905151367188	1253.165771484375	1434.306396484375	-226.8733367919922	1148.031494140625	978.2443237304688	-457.4164733886719	1199.552490234375	988.9513549804688	-190.6426696777344	1191.177856445312	928.74755859375	-438.0657043457031	1277.65966796875	68.85880279541016	-328.6841735839844	1217.8271484375	942.6441040039062	-208.8795623779297	1067.205932617188	854.8728637695312	-472.90625	1066.885375976562	880.7012329101562	-133.1364593505859	1030.415283203125	983.1244506835938	-315.2280883789062	1210.295776367188	649.2091064453125	-480.9067077636719	1239.912353515625	281.3861083984375	-409.1271362304688	1149.548950195312	623.6385498046875	-440.94970703125	1265.810180664062	570.619140625	-450.2024230957031	633.036865234375	177.4195251464844	-157.8282318115234	1226.056762695312	377.189697265625	-428.1285400390625	1196.466430664062	539.5292358398438	-424.5092468261719	1123.004760742188	634.5155029296875	-161.0077819824219	1526.400268554688	138.9633026123047	-386.4952392578125	1051.15234375	660.243408203125	-144.4037780761719	1090.20556640625	541.5221557617188	-183.8192596435547	1012.496826171875	567.946533203125	-164.4109954833984	1254.596557617188	481.2044372558594	-439.498046875	1005.655517578125	496.6541748046875	-171.6333465576172	1306.18408203125	389.7494812011719	-437.4967651367188	1320.002197265625	289.7324829101562	-421.7340393066406	915.8659057617188	410.1763000488281	-167.4506378173828	1458.726684570312	92.93341064453124	-434.693115234375	869.8545532226562	483.4879760742188	-169.1387023925781	1301.408813476562	46.05315780639648	-301.2279968261719	825.0968627929688	361.5977783203125	-180.1128540039062	789.3287353515625	431.2846984863281	-181.8696899414062	1318.6748046875	106.8288803100586	-391.8592224121094	656.1674194335938	321.2245483398438	-196.0660858154297	668.8795166015625	107.8133010864258	-217.2538299560547	615.5755004882812	357.6907043457031	-257.6415710449219	593.0172729492188	336.2444763183594	-285.3257141113281	591.7470092773438	355.8029174804688	-235.9136657714844	1288.925048828125	38.84003829956055	-354.2566833496094
256	1.275	1146.643676757812	1418.426879882812	-497.3875427246094	1268.18994140625	1430.536743164062	-227.7150268554688	1161.738403320312	974.5742797851562	-458.5019226074219	1214.5498046875	985.25048828125	-190.7865142822266	1206.482421875	925.2261962890624	-438.7159118652344	1284.907104492188	69.33705139160156	-326.6614379882812	1233.124389648438	939.1852416992188	-209.0577087402344	1081.698364257812	851.2054443359375	-472.7174682617188	1082.8115234375	875.8682250976562	-133.1616516113281	1045.337280273438	978.8482055664062	-315.4231262207031	1226.423217773438	646.114990234375	-479.20361328125	1252.168579101562	278.5079345703125	-408.8671569824219	1165.52197265625	619.7277221679688	-440.5185241699219	1281.714111328125	567.3469848632812	-449.3325805664062	647.2107543945312	181.0127258300781	-158.4531707763672	1239.131469726562	375.236083984375	-428.9249877929688	1212.525390625	535.6860961914062	-423.7392578125	1142.585693359375	629.9896850585938	-161.0673980712891	1536.6240234375	127.6149444580078	-382.3101196289062	1070.239135742188	654.51025390625	-144.2518920898438	1110.765747070312	536.288818359375	-183.2252349853516	1033.079467773438	561.7451171875	-163.6362762451172	1269.678955078125	477.5731506347656	-439.7959594726562	1027.202880859375	490.7172546386719	-170.6565856933594	1320.168334960938	385.8304138183594	-437.02880859375	1332.225708007812	285.5111694335938	-421.5480346679688	936.0974731445312	405.9099731445312	-167.0724792480469	1466.850952148438	85.4655532836914	-430.8846435546875	892.0256958007812	480.2172241210938	-168.3998565673828	1306.404418945312	44.46968460083008	-300.0326843261719	843.5686645507812	359.2614440917969	-179.9239044189453	809.767578125	430.5063171386719	-181.439208984375	1327.765869140625	103.5228500366211	-390.2562255859375	674.031982421875	324.688720703125	-196.1401824951172	681.7495727539062	110.7499389648438	-217.6897735595703	634.8695678710938	362.1309814453125	-257.8113098144531	611.6017456054688	341.16943359375	-285.5752868652344	610.6869506835938	360.7620544433594	-236.2073364257812	1294.491821289062	39.15138626098633	-352.9530639648438
257	1.28	1162.728515625	1413.3486328125	-498.5277709960938	1283.077514648438	1426.354248046875	-228.4275665283203	1175.761962890625	970.3966064453124	-459.1829833984375	1229.26953125	981.2845458984376	-190.6359100341797	1221.298828125	921.8226928710938	-439.3936462402344	1289.954711914062	70.51885986328125	-326.0028686523438	1248.2080078125	935.3997802734376	-209.4435577392578	1096.542724609375	847.3470458984375	-472.8380432128906	1099.048217773438	870.7155151367188	-132.9817504882812	1060.113403320312	974.491455078125	-315.2564392089844	1244.477661132812	642.5841674804688	-475.8575134277344	1263.847045898438	275.0960083007812	-408.7184143066406	1180.813598632812	616.5521850585938	-441.037109375	1297.111694335938	563.4525756835938	-448.8613586425781	662.3716430664062	184.6858520507812	-158.9756317138672	1252.810180664062	371.9663696289062	-428.8898620605469	1227.896362304688	532.0691528320312	-424.0645141601562	1162.023803710938	625.487060546875	-160.8272094726562	1545.088134765625	113.7965393066406	-378.2672729492188	1089.58447265625	648.51171875	-144.5122528076172	1131.99560546875	530.7967529296875	-182.7064514160156	1053.781127929688	555.2421264648438	-163.1321105957031	1284.973022460938	473.9530944824219	-439.8548583984375	1049.25537109375	484.5840454101562	-169.9044952392578	1333.75390625	381.6043395996094	-436.8351745605469	1344.509765625	280.6036682128906	-419.5018615722656	956.6994018554688	401.1907958984375	-165.9894104003906	1473.809814453125	75.98217010498047	-427.0560607910156	914.3419189453124	476.8612976074219	-167.2384185791016	1309.649047851562	43.74586486816406	-299.763671875	863.345703125	356.9622802734375	-179.6696014404297	831.01220703125	429.6038208007812	-180.5094909667969	1335.610717773438	99.11587524414062	-388.8314514160156	692.5534057617188	326.1665344238281	-196.4882659912109	695.4918823242188	113.9527359008789	-218.645751953125	655.0368041992188	366.0262145996094	-257.6359252929688	630.882080078125	346.2899475097656	-285.6563415527344	630.3925170898438	365.3064575195312	-236.3425598144531	1298.394775390625	40.10752868652344	-352.15283203125
